<svg id="Layer_1" data-name="Layer 1" xmlns="http://www.w3.org/2000/svg" viewBox="0 0 18 24"><defs><style>.cls-1{fill:#fff;}.cls-2{fill:#b8c4d1;}.cls-3{fill:#319a42;}</style></defs><title>ic_</title><polygon class="cls-1" points="16 5.72 12.28 2 2 2 2 17.83 16 17.83 16 5.72"/><path class="cls-2" d="M12.28,2L16,5.72V22H1.95V2H12.28M12.7,1H1V23H16.95V5L12.7,1h0Z"/><polygon class="cls-2" points="16.01 5.71 12.27 5.71 12.27 1.97 16.01 5.71"/><rect class="cls-3" x="1" y="16" width="15.95" height="7"/><path class="cls-1" d="M5.42,18.83l0.9-1.58H7.16L5.85,19.37l1.36,2.15H6.35l-0.93-1.6L4.5,21.52H3.66L5,19.37,3.69,17.26H4.53Z"/><path class="cls-1" d="M8.63,21h2v0.57H7.92V17.26H8.63V21Z"/><path class="cls-1" d="M13.63,20.43A0.56,0.56,0,0,0,13.44,20a1.74,1.74,0,0,0-.67-0.3,2.86,2.86,0,0,1-1.06-.5,1,1,0,0,1-.37-0.81,1,1,0,0,1,.41-0.85,1.62,1.62,0,0,1,1.05-.33,1.6,1.6,0,0,1,1.11.37,1.14,1.14,0,0,1,.4.92v0H13.61A0.68,0.68,0,0,0,13.39,18a0.86,0.86,0,0,0-.6-0.2,0.82,0.82,0,0,0-.56.17,0.56,0.56,0,0,0-.19.44,0.49,0.49,0,0,0,.21.41,2.32,2.32,0,0,0,.71.3,2.48,2.48,0,0,1,1,.51,1.08,1.08,0,0,1,.35.83,1,1,0,0,1-.42.85,1.76,1.76,0,0,1-1.09.32,1.9,1.9,0,0,1-1.13-.35,1.1,1.1,0,0,1-.47-1v0h0.69a0.67,0.67,0,0,0,.27.58,1.06,1.06,0,0,0,.65.19,1,1,0,0,0,.59-0.16A0.51,0.51,0,0,0,13.63,20.43Z"/><path id="icon-excelFile" class="cls-2" d="M11.23,7.91H9.92L9,9.34,8.08,7.91H6.77l1.56,2.46L6.57,13.11H9.1V12.18H8.52L9,11.41l1.07,1.69h1.35L9.66,10.37Z"/></svg>