<svg id="Layer_1" data-name="Layer 1" xmlns="http://www.w3.org/2000/svg" viewBox="0 0 18 24"><defs><style>.cls-1{fill:#fff;}.cls-2{fill:#b8c4d1;}.cls-3{fill:#00aedd;}</style></defs><title>ic_</title><polygon class="cls-1" points="16 5.72 12.28 2 2 2 2 17.83 16 17.83 16 5.72"/><path class="cls-2" d="M12.28,2L16,5.72V22H2V2H12.28M12.7,1H1V23H17V5.3L12.7,1h0Z"/><polygon class="cls-2" points="16.01 5.71 12.27 5.71 12.27 1.97 16.01 5.71"/><rect class="cls-3" x="1" y="16" width="16" height="7"/><path class="cls-1" d="M5.55,17.26H6.26v3a1.3,1.3,0,0,1-.37,1,1.33,1.33,0,0,1-1,.36,1.47,1.47,0,0,1-1-.32,1.14,1.14,0,0,1-.35-0.94v0H4.26a0.73,0.73,0,0,0,.17.54,0.66,0.66,0,0,0,.48.17,0.57,0.57,0,0,0,.46-0.21,0.85,0.85,0,0,0,.18-0.56v-3Z"/><path class="cls-1" d="M8,19.91v1.62H7.3V17.26H8.94a1.58,1.58,0,0,1,1.11.36,1.35,1.35,0,0,1,0,1.92,1.59,1.59,0,0,1-1.11.36H8Zm0-.57H8.94a0.78,0.78,0,0,0,.59-0.21,0.75,0.75,0,0,0,.2-0.54,0.72,0.72,0,0,0-.79-0.76H8v1.51Z"/><path class="cls-1" d="M14.43,20.95a1.49,1.49,0,0,1-.56.44,2.2,2.2,0,0,1-1,.19,1.68,1.68,0,0,1-1.24-.49,1.71,1.71,0,0,1-.49-1.26V18.94a1.74,1.74,0,0,1,.47-1.26,1.61,1.61,0,0,1,1.21-.49,1.67,1.67,0,0,1,1.16.38,1.22,1.22,0,0,1,.4,1v0H13.71A0.78,0.78,0,0,0,13.49,18a1,1,0,0,0-1.36.11,1.28,1.28,0,0,0-.27.84v0.9a1.26,1.26,0,0,0,.28.85,0.92,0.92,0,0,0,.74.33,1.53,1.53,0,0,0,.54-0.08,0.8,0.8,0,0,0,.3-0.19V19.87H12.83V19.33h1.61v1.61Z"/><path class="cls-2" d="M5.61,13.26V7.76h6.77v5.5H5.61ZM12,8.18H6v4.65H12V8.18Z"/><path class="cls-2" d="M9.43,11.14l0.85-.63,1.27,1.9H6.46L7.73,9Z"/><path class="cls-2" d="M10.28,9.23a0.63,0.63,0,1,1,.62.64A0.63,0.63,0,0,1,10.28,9.23Z"/></svg>