<svg id="Layer_1" data-name="Layer 1" xmlns="http://www.w3.org/2000/svg" viewBox="0 0 18 24"><defs><style>.cls-1{fill:none;}.cls-2,.cls-5{fill:#fff;}.cls-3{fill:#b8c4d1;}.cls-4{fill:#00aedd;}.cls-5{font-size:6px;font-family:Roboto;}</style></defs><title>ic_txt</title><rect class="cls-1" x="2" y="17.83" width="14" height="4.17"/><polygon class="cls-2" points="16 5.72 12.28 2 2 2 2 17.83 16 17.83 16 5.72"/><polygon class="cls-3" points="16 22 2 22 2 17.83 1 17.83 1 23 17 23 17 17.83 16 17.83 16 22"/><polygon class="cls-3" points="1 1 1 17.83 2 17.83 2 2 12.28 2 16 5.72 16 17.83 17 17.83 17 5.3 12.7 1 1 1"/><polygon class="cls-3" points="16.01 5.71 12.27 5.71 12.27 1.97 16.01 5.71"/><rect class="cls-4" x="1" y="16" width="16" height="7"/><rect class="cls-3" x="5" y="8" width="8" height="1"/><rect class="cls-3" x="5" y="10" width="8" height="1"/><rect class="cls-3" x="5" y="12" width="8" height="1"/><text class="cls-5" transform="translate(3.35 21.59)">TXT</text></svg>