<svg id="Layer_1" data-name="Layer 1" xmlns="http://www.w3.org/2000/svg" viewBox="0 0 18 24"><defs><style>.cls-1{fill:none;}.cls-2{fill:#fff;}.cls-3,.cls-5{fill:#b8c4d1;}.cls-4{fill:#d04830;}.cls-5{stroke:#b8c4d1;stroke-miterlimit:10;stroke-width:0.25px;}</style></defs><title>ic_</title><rect class="cls-1" x="2" y="17.83" width="14" height="4.17"/><polygon class="cls-2" points="16 5.72 12.28 2 2 2 2 17.83 16 17.83 16 5.72"/><polygon class="cls-3" points="16 22 2 22 2 17.83 1 17.83 1 23 17 23 17 17.83 16 17.83 16 22"/><polygon class="cls-3" points="1 1 1 17.83 2 17.83 2 2 12.28 2 16 5.72 16 17.83 17 17.83 17 5.3 12.7 1 1 1"/><polygon class="cls-3" points="16.01 5.71 12.27 5.71 12.27 1.97 16.01 5.71"/><rect class="cls-4" x="1" y="16" width="16" height="7"/><path class="cls-2" d="M4.28,19.91v1.62H3.56V17.26H5.2a1.58,1.58,0,0,1,1.11.36,1.35,1.35,0,0,1,0,1.92,1.59,1.59,0,0,1-1.11.36H4.28Zm0-.57H5.2a0.78,0.78,0,0,0,.59-0.21A0.75,0.75,0,0,0,6,18.59a0.72,0.72,0,0,0-.79-0.76H4.28v1.51Z"/><path class="cls-2" d="M7.54,21.52V17.26H8.94a1.79,1.79,0,0,1,1.32.51,1.76,1.76,0,0,1,.51,1.3v0.65a1.76,1.76,0,0,1-.51,1.3,1.79,1.79,0,0,1-1.32.5H7.54Zm0.71-3.69V21h0.7a1,1,0,0,0,.81-0.35,1.31,1.31,0,0,0,.3-0.89V19.06a1.3,1.3,0,0,0-.3-0.89,1,1,0,0,0-.81-0.35H8.25Z"/><path class="cls-2" d="M14.14,19.7H12.42v1.82H11.7V17.26h2.73v0.57h-2v1.3h1.72V19.7Z"/><path class="cls-5" d="M9.26,8.16a5.77,5.77,0,0,1-.31,1.58,0.21,0.21,0,0,0,0,.18,6.13,6.13,0,0,0,1,1.28,0.16,0.16,0,0,0,.15,0,4.46,4.46,0,0,1,1.7,0,1.36,1.36,0,0,1,.34.14,0.44,0.44,0,0,1,.24.45,0.42,0.42,0,0,1-.38.36,1.72,1.72,0,0,1-.85-0.08A3,3,0,0,1,10,11.46a0.17,0.17,0,0,0-.17,0l-1.73.45A0.23,0.23,0,0,0,8,12a6.13,6.13,0,0,1-1,1.35,1.67,1.67,0,0,1-.6.41,0.69,0.69,0,0,1-.54,0,0.4,0.4,0,0,1-.2-0.56,1.46,1.46,0,0,1,.51-0.53A5.87,5.87,0,0,1,7.4,12a0.36,0.36,0,0,0,.19-0.18,14.69,14.69,0,0,0,1-2.27,0.23,0.23,0,0,0,0-.14,3.59,3.59,0,0,1-.34-1.58,1.11,1.11,0,0,1,.06-0.31A0.44,0.44,0,0,1,9,7.33,0.94,0.94,0,0,1,9.26,8S9.26,8.11,9.26,8.16ZM8.88,10L8.18,11.7l1.65-.43A6.08,6.08,0,0,1,8.88,10ZM7.39,12.16A4.32,4.32,0,0,0,5.93,13a1,1,0,0,0-.16.25,0.23,0.23,0,0,0,.05.27,0.22,0.22,0,0,0,.27.07,1.75,1.75,0,0,0,.41-0.25A4.69,4.69,0,0,0,7.39,12.16Zm2.75-.79a2.76,2.76,0,0,0,1,.59,1.6,1.6,0,0,0,.48.07,0.34,0.34,0,0,0,.33-0.31,0.33,0.33,0,0,0-.27-0.37,2.1,2.1,0,0,0-.38-0.06A4.82,4.82,0,0,0,10.13,11.37ZM8.64,9.28c0-.07,0-0.14.06-0.22C8.78,8.7,8.86,8.34,8.92,8a1.36,1.36,0,0,0,0-.46,0.22,0.22,0,0,0-.22-0.17,0.25,0.25,0,0,0-.24.13,0.61,0.61,0,0,0-.07.19A2.82,2.82,0,0,0,8.64,9.28Z"/></svg>