<svg id="Layer_1" data-name="Layer 1" xmlns="http://www.w3.org/2000/svg" viewBox="0 0 18 24"><defs><style>.cls-1{fill:#fff;}.cls-2{fill:#b8c4d1;}.cls-3{fill:#285598;}</style></defs><title>ic_</title><polygon class="cls-1" points="16 5.72 12.28 2 2 2 2 17.83 16 17.83 16 5.72"/><path class="cls-2" d="M12.28,2L16,5.72V22H1.95V2H12.28M12.7,1H1V23H16.95V5L12.7,1h0Z"/><polygon class="cls-2" points="16.01 5.71 12.27 5.71 12.27 1.97 16.01 5.71"/><rect class="cls-3" x="1" y="16" width="15.95" height="7"/><path class="cls-1" d="M3.51,21.52V17.26H4.92a1.79,1.79,0,0,1,1.32.51,1.76,1.76,0,0,1,.51,1.3v0.65A1.76,1.76,0,0,1,6.24,21a1.79,1.79,0,0,1-1.32.5H3.51Zm0.71-3.69V21h0.7a1,1,0,0,0,.81-0.35A1.31,1.31,0,0,0,6,19.72V19.06a1.3,1.3,0,0,0-.3-0.89,1,1,0,0,0-.81-0.35H4.22Z"/><path class="cls-1" d="M11,19.77a1.8,1.8,0,0,1-.49,1.3,1.68,1.68,0,0,1-1.28.51A1.63,1.63,0,0,1,8,21.07a1.82,1.82,0,0,1-.48-1.3V19A1.83,1.83,0,0,1,8,17.71a1.62,1.62,0,0,1,1.25-.52,1.68,1.68,0,0,1,1.27.52A1.8,1.8,0,0,1,11,19v0.77ZM10.32,19A1.33,1.33,0,0,0,10,18.12a1,1,0,0,0-.77-0.34,0.9,0.9,0,0,0-.74.34,1.37,1.37,0,0,0-.27.88v0.77a1.38,1.38,0,0,0,.27.88,0.89,0.89,0,0,0,.74.34A1,1,0,0,0,10,20.66a1.34,1.34,0,0,0,.28-0.88V19Z"/><path class="cls-1" d="M15.05,20.13v0a1.32,1.32,0,0,1-.42,1,1.65,1.65,0,0,1-1.16.4,1.56,1.56,0,0,1-1.21-.5,1.82,1.82,0,0,1-.46-1.28V19a1.84,1.84,0,0,1,.46-1.28,1.53,1.53,0,0,1,1.19-.51,1.72,1.72,0,0,1,1.19.38,1.3,1.3,0,0,1,.42,1.05v0H14.37A0.88,0.88,0,0,0,14.14,18a0.93,0.93,0,0,0-.68-0.23,0.81,0.81,0,0,0-.69.34,1.43,1.43,0,0,0-.25.87V19.8a1.42,1.42,0,0,0,.26.87,0.83,0.83,0,0,0,.7.34,0.8,0.8,0,0,0,.89-0.89h0.69Z"/><path id="icon-wordFile" class="cls-2" d="M10.56,8.84H11l-0.51,2.3L9.83,7.91H8.77L8,11.14,7.42,7.91H6.31l1.13,5.2H8.53L9.29,10,10,13.11h1l1.29-5.2h-1.7V8.84Z"/></svg>